<?xml version="1.0" encoding="UTF-8"?>
<svg xmlns="http://www.w3.org/2000/svg" xmlns:xlink="http://www.w3.org/1999/xlink" width="100px" height="100px" viewBox="0 0 100 100" version="1.1">
<g id="surface1">
<path style=" stroke:none;fill-rule:nonzero;fill:rgb(68.235296%,67.843139%,70.19608%);fill-opacity:1;" d="M 0 17.992188 L 70.703125 17.992188 L 70.703125 74.871094 L 0 74.871094 Z M 0 17.992188 "/>
<path style=" stroke:none;fill-rule:nonzero;fill:rgb(54.509807%,53.333336%,57.254905%);fill-opacity:1;" d="M 49.628906 17.992188 L 70.703125 17.992188 L 70.703125 74.871094 L 49.628906 74.871094 Z M 49.628906 17.992188 "/>
<path style=" stroke:none;fill-rule:nonzero;fill:rgb(0%,50.980395%,82.352942%);fill-opacity:1;" d="M 100 58.398438 L 100 74.871094 L 0 74.871094 L 0 54.890625 L 70.703125 54.890625 L 70.703125 34.910156 L 80.328125 34.910156 C 85.261719 34.910156 89.269531 38.921875 89.269531 43.851562 L 89.269531 51.210938 L 92.8125 51.210938 C 96.773438 51.210938 100 54.433594 100 58.398438 Z M 100 58.398438 "/>
<path style=" stroke:none;fill-rule:nonzero;fill:rgb(0%,36.078432%,58.039218%);fill-opacity:1;" d="M 100 58.398438 L 100 74.871094 L 49.628906 74.871094 L 49.628906 54.890625 L 70.703125 54.890625 L 70.703125 34.910156 L 80.328125 34.910156 C 85.261719 34.910156 89.269531 38.921875 89.269531 43.851562 L 89.269531 51.210938 L 92.8125 51.210938 C 96.773438 51.210938 100 54.433594 100 58.398438 Z M 100 58.398438 "/>
<path style=" stroke:none;fill-rule:nonzero;fill:rgb(68.235296%,67.843139%,70.19608%);fill-opacity:1;" d="M 26.234375 71.808594 C 26.234375 75.117188 23.554688 77.796875 20.246094 77.796875 C 16.941406 77.796875 14.261719 75.117188 14.261719 71.808594 C 14.261719 68.503906 16.941406 65.824219 20.246094 65.824219 C 23.554688 65.824219 26.234375 68.503906 26.234375 71.808594 Z M 26.234375 71.808594 "/>
<path style=" stroke:none;fill-rule:nonzero;fill:rgb(54.509807%,53.333336%,57.254905%);fill-opacity:1;" d="M 26.234375 71.808594 C 26.234375 75.117188 23.554688 77.796875 20.246094 77.796875 L 20.246094 65.824219 C 23.554688 65.824219 26.234375 68.503906 26.234375 71.808594 Z M 26.234375 71.808594 "/>
<path style=" stroke:none;fill-rule:nonzero;fill:rgb(16.862746%,16.078432%,17.254902%);fill-opacity:1;" d="M 30.441406 71.710938 C 30.386719 66.136719 25.828125 61.617188 20.246094 61.617188 C 14.660156 61.617188 10.09375 66.15625 10.054688 71.722656 L 10.050781 71.808594 C 10.050781 77.433594 14.625 82.007812 20.246094 82.007812 C 25.871094 82.007812 30.445312 77.433594 30.445312 71.808594 Z M 20.246094 75.882812 C 18.015625 75.882812 16.195312 74.078125 16.175781 71.851562 L 16.175781 71.792969 C 16.183594 69.554688 18.011719 67.738281 20.246094 67.738281 C 22.484375 67.738281 24.308594 69.558594 24.316406 71.792969 L 24.316406 71.808594 C 24.320312 71.820312 24.320312 71.835938 24.320312 71.847656 C 24.300781 74.074219 22.480469 75.882812 20.246094 75.882812 Z M 20.246094 75.882812 "/>
<path style=" stroke:none;fill-rule:nonzero;fill:rgb(9.019608%,9.019608%,10.196079%);fill-opacity:1;" d="M 30.445312 71.808594 C 30.445312 77.433594 25.871094 82.007812 20.246094 82.007812 L 20.246094 75.882812 C 22.480469 75.882812 24.300781 74.074219 24.320312 71.847656 C 24.320312 71.835938 24.320312 71.820312 24.320312 71.808594 L 24.320312 71.792969 C 24.308594 69.554688 22.484375 67.738281 20.246094 67.738281 L 20.246094 61.613281 C 25.828125 61.613281 30.386719 66.136719 30.441406 71.710938 Z M 30.445312 71.808594 "/>
<path style=" stroke:none;fill-rule:nonzero;fill:rgb(68.235296%,67.843139%,70.19608%);fill-opacity:1;" d="M 86.101562 71.808594 C 86.101562 75.117188 83.421875 77.796875 80.117188 77.796875 C 76.808594 77.796875 74.128906 75.117188 74.128906 71.808594 C 74.128906 68.503906 76.808594 65.824219 80.117188 65.824219 C 83.421875 65.824219 86.101562 68.503906 86.101562 71.808594 Z M 86.101562 71.808594 "/>
<path style=" stroke:none;fill-rule:nonzero;fill:rgb(54.509807%,53.333336%,57.254905%);fill-opacity:1;" d="M 86.101562 71.808594 C 86.101562 75.117188 83.421875 77.796875 80.117188 77.796875 L 80.117188 65.824219 C 83.421875 65.824219 86.101562 68.503906 86.101562 71.808594 Z M 86.101562 71.808594 "/>
<path style=" stroke:none;fill-rule:nonzero;fill:rgb(16.862746%,16.078432%,17.254902%);fill-opacity:1;" d="M 90.308594 71.710938 C 90.257812 66.136719 85.695312 61.617188 80.117188 61.617188 C 74.527344 61.617188 69.960938 66.15625 69.921875 71.722656 L 69.921875 71.808594 C 69.921875 77.433594 74.496094 82.007812 80.117188 82.007812 C 85.738281 82.007812 90.3125 77.433594 90.3125 71.808594 Z M 80.117188 75.882812 C 77.882812 75.882812 76.066406 74.078125 76.042969 71.851562 L 76.046875 71.792969 C 76.054688 69.554688 77.878906 67.738281 80.117188 67.738281 C 82.351562 67.738281 84.179688 69.558594 84.1875 71.792969 L 84.1875 71.808594 C 84.1875 71.820312 84.1875 71.835938 84.1875 71.847656 C 84.167969 74.074219 82.351562 75.882812 80.117188 75.882812 Z M 80.117188 75.882812 "/>
<path style=" stroke:none;fill-rule:nonzero;fill:rgb(9.019608%,9.019608%,10.196079%);fill-opacity:1;" d="M 90.3125 71.808594 C 90.3125 77.433594 85.738281 82.007812 80.117188 82.007812 L 80.117188 75.882812 C 82.351562 75.882812 84.167969 74.074219 84.1875 71.847656 C 84.1875 71.835938 84.1875 71.820312 84.1875 71.808594 L 84.1875 71.792969 C 84.179688 69.554688 82.351562 67.738281 80.117188 67.738281 L 80.117188 61.613281 C 85.695312 61.613281 90.257812 66.136719 90.308594 71.710938 Z M 90.3125 71.808594 "/>
<path style=" stroke:none;fill-rule:nonzero;fill:rgb(78.431374%,77.64706%,80.392158%);fill-opacity:1;" d="M 74.816406 51.523438 L 84.1875 51.523438 L 84.1875 44.421875 C 84.1875 42.09375 82.300781 40.207031 79.972656 40.207031 L 74.816406 40.207031 Z M 74.816406 51.523438 "/>
</g>
</svg>
